<svg width="40" height="40" viewBox="0 0 40 40" fill="none" xmlns="http://www.w3.org/2000/svg">
    <defs>
        <style>
            .cls-1{fill:none;}.cls-2{clip-path:url(#clip-path);}.cls-3{fill:#da7b79;}.cls-4{fill:#362d5c;}.cls-4,.cls-5{fill-rule:evenodd;}.cls-5{fill:#be4447;}
        </style>
        <clipPath id="clip-path">
            <rect class="cls-1" width="36.47" height="27.56"/>
        </clipPath>
    </defs>
    <g class="cls-2">
        <g class="cls-2">
            <path class="cls-3" d="M12.35,13.87l5.89-6.41,5.89,6.41-5.89,6.41Z"/>
        </g>
        <g class="cls-2">
            <path class="cls-4"
                  d="M15.19,4.3l-8.8,9.57L15,23.26l-3.95,4.3L11,27.48l-8.55-9.3-.24-.27q-3-3.21-1.94-5.44a7.72,7.72,0,0,1,1.39-2L11.24,0Z"/>
        </g>
        <g class="cls-2">
            <path class="cls-5"
                  d="M21.29,4.3l8.79,9.57-8.62,9.39,3.95,4.3.08-.08L34,18.18l.24-.27q3-3.21,1.93-5.44a7.43,7.43,0,0,0-1.37-2L25.24,0Z"/>
        </g>
    </g>
</svg>